<svg width="15" height="14" fill="none" xmlns="http://www.w3.org/2000/svg"><path d="M1.43 6.581a.519.519 0 01-.143-.382.532.532 0 01.184-.368.674.674 0 01.417-.164.688.688 0 01.432.127l4.555 4.034V.66c0-.146.066-.287.183-.39A.669.669 0 017.5.109c.166 0 .325.058.442.162a.522.522 0 01.183.39v9.167l4.555-4.034a.688.688 0 01.432-.127.674.674 0 01.417.164c.11.098.177.23.184.368a.519.519 0 01-.143.382l-5.625 4.974a.687.687 0 01-.445.159.687.687 0 01-.445-.16L1.43 6.582zm12.945 6.238H.625a.669.669 0 00-.442.162.522.522 0 00-.183.39c0 .147.066.287.183.391a.669.669 0 00.442.162h13.75a.669.669 0 00.442-.162.522.522 0 00.183-.39.522.522 0 00-.183-.391.668.668 0 00-.442-.162z" fill="#454545"/></svg>