<svg viewBox="0 0 30 38" fill="none" xmlns="http://www.w3.org/2000/svg">
<path d="M15 20.667C17.7614 20.667 20 18.4284 20 15.667C20 12.9056 17.7614 10.667 15 10.667C12.2386 10.667 10 12.9056 10 15.667C10 18.4284 12.2386 20.667 15 20.667Z" stroke="#332F29" stroke-width="3.33333" stroke-linecap="round" stroke-linejoin="round"/>
<path d="M15 2.3335C11.4638 2.3335 8.0724 3.73825 5.57191 6.23874C3.07143 8.73922 1.66667 12.1306 1.66667 15.6668C1.66667 18.8202 2.33667 20.8835 4.16667 23.1668L15 35.6668L25.8333 23.1668C27.6633 20.8835 28.3333 18.8202 28.3333 15.6668C28.3333 12.1306 26.9286 8.73922 24.4281 6.23874C21.9276 3.73825 18.5362 2.3335 15 2.3335V2.3335Z" stroke="#332F29" stroke-width="3.33333" stroke-linecap="round" stroke-linejoin="round"/>
</svg>
