<svg viewBox="0 0 40 40" fill="none" xmlns="http://www.w3.org/2000/svg">
<path d="M20 3.3335C10.8 3.3335 3.33333 10.8002 3.33333 20.0002C3.33333 29.2002 10.8 36.6668 20 36.6668H28.3333V33.3335H20C12.7667 33.3335 6.66666 27.2335 6.66666 20.0002C6.66666 12.7668 12.7667 6.66683 20 6.66683C27.2333 6.66683 33.3333 12.7668 33.3333 20.0002V22.3835C33.3333 23.7002 32.15 25.0002 30.8333 25.0002C29.5167 25.0002 28.3333 23.7002 28.3333 22.3835V20.0002C28.3333 15.4002 24.6 11.6668 20 11.6668C15.4 11.6668 11.6667 15.4002 11.6667 20.0002C11.6667 24.6002 15.4 28.3335 20 28.3335C22.3 28.3335 24.4 27.4002 25.9 25.8835C26.9833 27.3668 28.85 28.3335 30.8333 28.3335C34.1167 28.3335 36.6667 25.6668 36.6667 22.3835V20.0002C36.6667 10.8002 29.2 3.3335 20 3.3335ZM20 25.0002C17.2333 25.0002 15 22.7668 15 20.0002C15 17.2335 17.2333 15.0002 20 15.0002C22.7667 15.0002 25 17.2335 25 20.0002C25 22.7668 22.7667 25.0002 20 25.0002Z" fill="#332F29"/>
</svg>
