<svg xmlns="http://www.w3.org/2000/svg" viewBox="1 0 479.99864 479" id="svg-16fb">
<path d="m312 .5c-63.425781-.117188-121.484375 35.558594-150.039062 92.1875-28.558594 56.632812-22.71875 124.527344 15.085937 175.453125l-174.703125 174.703125c-3.125 3.125-3.125 8.1875 0 11.3125l24 24c3.121094 3.121094 8.1875 3.121094 11.308594 0l174.707031-174.703125c58.648437 43.3125 138.550781 43.824219 197.75 1.265625 59.199219-42.5625 84.164063-118.464844 61.785156-187.855469-22.378906-69.390625-86.984375-116.410156-159.894531-116.363281zm43.71875 110.917969c-15.589844-12.175781-35.582031-17.234375-55.089844-13.933594-6.769531-10.308594-15.546875-19.148437-25.804687-25.992187 28.261719-10.96875 59.921875-8.953126 86.566406 5.511718.96875 11.765625-.976563 23.585938-5.671875 34.414063zm-110.921875 31.425781c-12.304687.710938-24.34375 3.890625-35.398437 9.34375 4.792968-29.921875 22.390624-56.269531 48.191406-72.160156 10.589844 5.035156 19.785156 12.589844 26.777344 22-18.207032 7.636718-32.503907 22.378906-39.570313 40.816406zm48.175781-26.945312c6.054688 12.144531 9.726563 25.332031 10.816406 38.855468-13.101562-6.28125-27.207031-10.207031-41.671874-11.597656 6.472656-12.660156 17.5-22.402344 30.863281-27.257812zm-52.308594 43.28125c-2.726562 19.601562 2.894532 39.445312 15.496094 54.703124-5.542968 11.019532-8.808594 23.042969-9.601562 35.351563-23.550782-19.09375-37.578125-47.523437-38.398438-77.832031 9.671875-6.675782 20.835938-10.871094 32.511719-12.222656zm15.335938 9.320312c.015625-3.296875.324219-6.589844.917969-9.832031 13.550781.824219 26.816406 4.238281 39.082031 10.054687-11.996094 8.210938-22.449219 18.464844-30.890625 30.296875-5.945313-9.066406-9.113281-19.675781-9.109375-30.519531zm48.191406 13.96875c1.113282 14.484375 4.761719 28.660156 10.78125 41.878906-.992187.054688-1.964844.152344-2.972656.152344-13.203125.007812-25.980469-4.675781-36.050781-13.214844 7.488281-11.320312 17.074219-21.101562 28.242187-28.816406zm4.800782-69.816406c.988281-.058594 1.964843-.152344 2.972656-.152344 13.203125-.007812 25.980468 4.675781 36.050781 13.214844-7.492187 11.316406-17.078125 21.089844-28.242187 28.800781-1.101563-14.476563-4.742188-28.648437-10.75-41.863281zm70.207031 81.511718c12.308593-.710937 24.347656-3.890624 35.398437-9.351562-4.792968 29.921875-22.386718 56.269531-48.191406 72.160156-10.589844-5.035156-19.78125-12.589844-26.777344-22 18.207032-7.632812 32.5-22.378906 39.570313-40.808594zm-48.175781 26.933594c-6.054688-12.140625-9.722657-25.332031-10.816407-38.855468 13.097657 6.285156 27.203125 10.214843 41.664063 11.609374-6.46875 12.660157-17.496094 22.394532-30.855469 27.246094zm52.3125-43.277344c2.722656-19.601562-2.898438-39.445312-15.496094-54.703124 5.539062-11.023438 8.804687-23.042969 9.597656-35.355469 23.550781 19.09375 37.578125 47.527343 38.402344 77.832031-9.671875 6.679688-20.839844 10.875-32.511719 12.226562zm-15.335938-9.320312c-.019531 3.296875-.328125 6.585938-.921875 9.832031-13.550781-.828125-26.816406-4.238281-39.078125-10.054687 11.992188-8.210938 22.445312-18.464844 30.886719-30.296875 5.949219 9.066406 9.113281 19.675781 9.113281 30.519531zm-56-152c9.765625.015625 19.511719.972656 29.09375 2.863281 6.644531 12.113281 12.054688 24.863281 16.144531 38.054688-32.703125-13.410157-69.667969-11.625-100.929687 4.875-14.105469-4.613281-28.710938-7.527344-43.511719-8.679688 27.511719-23.929687 62.742187-37.109375 99.203125-37.113281zm-152 152c.003906-36.714844 13.371094-72.167969 37.597656-99.753906 13.785156.3125 27.507813 2.011718 40.953125 5.066406-27.917969 21.625-44.859375 54.476562-46.296875 89.757812l-.085937.082032c-11.089844 9.945312-20.949219 21.183594-29.371094 33.472656-1.835937-9.433594-2.773437-19.015625-2.796875-28.625zm-128 292.6875-12.691406-12.6875 167.769531-167.769531c.945313 1.058593 2.023437 1.976562 3 3.007812 2.164063 2.289063 4.390625 4.515625 6.679687 6.679688 1.03125.976562 1.953126 2.058593 3.007813 3zm184.078125-174.910156c-3.945313-3.203125-7.726563-6.597656-11.328125-10.179688l-.351562-.351562c-16.222657-16.355469-28.53125-36.175782-36-57.964844 7.164062-11.800781 15.5-22.847656 24.878906-32.976562 4.828125 34.964843 24.800781 66.03125 54.609375 84.933593v.128907c3.070312 14.535156 7.863281 28.652343 14.273437 42.054687-16.738281-5.796875-32.335937-14.476563-46.082031-25.644531zm52.199219-60.699219c15.589844 12.179687 35.582031 17.238281 55.089844 13.9375 6.769531 10.308594 15.546874 19.148437 25.808593 25.992187-28.265625 10.96875-59.925781 8.953126-86.570312-5.511718-.96875-11.765625.976562-23.585938 5.671875-34.417969zm43.722656 94.921875c-9.769531-.015625-19.515625-.976562-29.097656-2.863281-6.644532-12.113281-12.054688-24.863281-16.144532-38.058594 32.703126 13.414063 69.671876 11.628906 100.929688-4.871094 14.105469 4.613281 28.714844 7.527344 43.511719 8.679688-27.511719 23.925781-62.742188 37.105469-99.199219 37.113281zm152-152c-.007812 36.710938-13.375 72.167969-37.601562 99.75-13.785157-.3125-27.503907-2.007812-40.953126-5.0625 27.917969-21.628906 44.859376-54.476562 46.296876-89.761719l.089843-.078125c11.089844-9.945312 20.949219-21.183594 29.367188-33.472656 1.835937 9.433594 2.773437 19.015625 2.800781 28.625zm-33.242188-16.304688c-4.824218-34.964843-24.800781-66.03125-54.609374-84.9375v-.125c-3.070313-14.535156-7.859376-28.65625-14.269532-42.058593 43.996094 15.40625 78.535156 50.085937 93.757813 94.144531-7.164063 11.800781-15.5 22.847656-24.878907 32.976562zm0 0"></path>
</svg>