<svg viewBox="0 0 40 42" fill="none" xmlns="http://www.w3.org/2000/svg">
<path d="M29.137 41.4697C29.6681 41.4729 30.1945 41.3686 30.6855 41.1629C31.1765 40.9573 31.6222 40.6544 31.9967 40.272L37.4161 34.7705C37.7885 34.3901 37.9976 33.8756 37.9976 33.3393C37.9976 32.8029 37.7885 32.2884 37.4161 31.908L29.4169 23.7877C29.0422 23.4096 28.5354 23.1974 28.0071 23.1974C27.4788 23.1974 26.9719 23.4096 26.5972 23.7877L23.3976 27.0155C21.1823 26.4159 19.1307 25.3121 17.3982 23.7877C15.9006 22.0262 14.8138 19.9444 14.2186 17.6974L17.3982 14.4493C17.7707 14.0689 17.9797 13.5544 17.9797 13.0181C17.9797 12.4818 17.7707 11.9672 17.3982 11.5869L9.39907 3.46653C9.02438 3.08843 8.51753 2.8762 7.98922 2.8762C7.4609 2.8762 6.95405 3.08843 6.57937 3.46653L1.17994 8.98837C0.803245 9.36848 0.504903 9.82096 0.302327 10.3194C0.0997513 10.8178 -0.00300119 11.3522 6.67263e-05 11.8914C0.181493 19.6916 3.25187 27.1359 8.59915 32.7404C14.12 38.1687 21.4532 41.2856 29.137 41.4697ZM7.99922 7.79062L13.1787 13.0485L10.5989 15.6674C10.3546 15.8997 10.1716 16.1906 10.0668 16.5133C9.962 16.8361 9.93868 17.1804 9.999 17.5147C10.7465 20.9057 12.329 24.0489 14.5985 26.6501C17.159 28.957 20.256 30.5639 23.5976 31.3193C23.9219 31.3881 24.258 31.3741 24.5756 31.2784C24.8932 31.1827 25.1825 31.0084 25.4174 30.7712L27.9971 28.0915L33.1765 33.3494L29.177 37.4096C22.5451 37.2362 16.2173 34.5494 11.4388 29.878C6.82516 25.0251 4.17084 18.5929 3.99964 11.8508L7.99922 7.79062ZM35.9962 19.1388H39.9958C40.0477 16.725 39.6176 14.3256 38.7314 12.0851C37.8453 9.84457 36.5215 7.80938 34.8398 6.10218C33.158 4.39498 31.1532 3.05111 28.9462 2.15155C26.7391 1.25199 24.3755 0.815379 21.9977 0.868022V4.92819C23.8533 4.86303 25.7023 5.18604 27.4297 5.87713C29.1572 6.56822 30.7261 7.61262 32.039 8.94541C33.3519 10.2782 34.3807 11.8709 35.0615 13.6245C35.7422 15.3781 36.0604 17.2551 35.9962 19.1388Z" fill="#332F29"/>
<path d="M21.5977 13.4503C25.7973 13.4503 27.5971 15.2774 27.5971 19.5406H31.5966C31.5966 13.0037 28.037 9.39014 21.5977 9.39014V13.4503Z" fill="#332F29"/>
</svg>
