<svg viewBox="0 0 50 50" fill="none" xmlns="http://www.w3.org/2000/svg">
<g clip-path="url(#clip0_49_121)">
<path d="M15.2947 49.9729H15.0731C10.6103 49.9289 6.21199 48.7661 2.19668 46.5688C1.45808 46.1776 0.849939 45.5299 0.461278 44.7207C0.072618 43.9115 -0.0761474 42.9832 0.0367599 42.0717C0.159555 41.1541 0.536276 40.3036 1.11314 39.6418C1.69 38.98 2.43751 38.5407 3.24895 38.3865C5.73732 38.0121 8.13117 37.0661 10.2825 35.6071C6.54743 32.3136 3.67194 27.9418 1.9608 22.9551C0.249668 17.9684 -0.233365 12.5524 0.562895 7.28127C0.670857 6.44634 0.989242 5.66397 1.48016 5.02726C1.97108 4.39055 2.61387 3.92632 3.33203 3.6898C4.03072 3.44233 4.77847 3.43176 5.48244 3.65939C6.18642 3.88702 6.8156 4.34284 7.29188 4.97024C8.90906 7.36179 10.9413 9.35671 13.2646 10.8333C15.588 12.3099 18.1537 13.2371 20.8052 13.5585C20.9319 9.87917 22.3339 6.40282 24.7097 3.87718C25.896 2.59604 27.2965 1.59398 28.8297 0.929391C30.3628 0.264803 31.9979 -0.049021 33.6396 0.00620606C35.2814 0.0614331 36.8969 0.484607 38.3922 1.25107C39.8875 2.01753 41.2326 3.11195 42.3491 4.47056C42.64 4.76059 43.0014 4.94542 43.3865 5.0011C43.7716 5.05678 44.1626 4.98075 44.509 4.78286C45.1692 4.43167 45.9044 4.29946 46.6288 4.40168C47.3531 4.50389 48.0368 4.8363 48.5999 5.36013C49.1631 5.88397 49.5826 6.57761 49.8094 7.36015C50.0363 8.14268 50.0611 8.98183 49.8811 9.77969C49.2424 12.7469 48.0323 15.5191 46.3366 17.8995C45.9629 26.7837 42.4899 35.141 36.675 41.1492C30.86 47.1574 23.1747 50.3291 15.2947 49.9729ZM15.2947 43.7269H15.5162C18.7358 43.8518 21.9453 43.2547 24.9587 41.9701C27.9722 40.6856 30.7295 38.7392 33.0709 36.2438C35.4123 33.7484 37.2913 30.7536 38.5987 27.4331C39.9062 24.1126 40.6162 20.5325 40.6876 16.9002C40.7333 15.9047 41.0973 14.9617 41.7122 14.2456C42.3876 13.2814 42.9636 12.2336 43.429 11.1226C42.4314 11.1247 41.4447 10.8894 40.5333 10.432C39.6219 9.97452 38.8063 9.30529 38.14 8.46802C37.4992 7.75146 36.7381 7.18626 35.9013 6.80552C35.0644 6.42479 34.1686 6.23616 33.2663 6.25068C32.355 6.2241 31.448 6.40078 30.5974 6.77058C29.7468 7.14037 28.9693 7.696 28.3096 8.40556C27.4195 9.35808 26.7669 10.5575 26.417 11.8839C26.0671 13.2102 26.0322 14.6169 26.3158 15.9633L27.0358 19.5235L23.7959 19.7733C20.476 20.0787 17.1369 19.5665 14.0098 18.2723C10.8828 16.9781 8.04255 14.9328 5.68579 12.2781C5.58471 16.3892 6.49659 20.4514 8.32004 24.0131C10.1435 27.5747 12.8071 30.4962 16.0146 32.4528L18.6453 34.1392L16.9008 36.95C15.0141 39.7404 12.4291 41.8291 9.47949 42.9461C11.3717 43.481 13.3163 43.7434 15.267 43.7269H15.2947Z" fill="#332F29"/>
</g>
<defs>
<clipPath id="clip0_49_121">
<rect width="50" height="50" fill="white"/>
</clipPath>
</defs>
</svg>
